<?xml version="1.0" encoding="UTF-8"?>
<svg id="Layer_1" data-name="Layer 1" xmlns="http://www.w3.org/2000/svg" viewBox="0 0 853.91 650.76">
  <defs>
    <style>
      .cls-1 {
        fill: none;
        stroke: #000;
        stroke-miterlimit: 10;
        stroke-width: .25px;
      }

      .cls-2 {
        fill: #fff;
        stroke-width: 0px;
      }
    </style>
  </defs>
  <path class="cls-2" d="M806.23,626.11c-36.46,23.39-88.99,22.5-125.88-4.76-31.64-23.39-45.03-61.19-45.11-95.55-.03-4.82.23-9.57.75-14.22-.75,1.98-1.52,3.96-2.35,5.88V224.8c-11.55,13.9-26.31,29.26-44.88,44.22-14.13,11.38-27.17,19.09-53.17,34.62-52.51,31.38-76.75,39.61-100.97,71.71-1.75,2.32-5.24,7.08-9.29,13.67-7.11,11.64-37.77,61.82-23.9,120.98,3.1,13.15,9.2,39.9,32.21,61.48,34.16,32.04,86.01,34.45,122.93,21.47,34.45-12.15,61.96-39.87,77.07-75.49v11.18c-19.09,33.33-53.94,76.93-112.44,97.48-65.81,23.13-164.54,18.23-212.2-49.04-28.09-39.61-35.28-96.39-16.85-142.67,11.26-28.26,29.18-45.31,40.98-56.35,31.07-29.01,56.2-33.85,169.79-74.63,60.56-21.75,67.44-25.42,76.47-32.21,10.55-7.94,68.36-53.51,67.67-128.77-.06-8.48-1.72-76.95-52.68-112.35-30.27-21.01-64.77-21.21-95.13-21.38-29-.2-52.39,5.25-66.24,9.31-22.67,6.68-40.78,15.76-53.97,23.7,5.96,3.12,11.92,6.91,17.77,11.44,7.19,5.59,43.34,33.22,48.29,82.31,1.49,14.79-.2,28.03-2.98,38.92,0,.03-.03.06-.03.09v.06c-2.98,35.71-32.9,63.74-69.39,63.74-38.52,0-69.7-31.21-69.7-69.7s31.18-69.7,69.7-69.7c12.47,0,24.16,3.27,34.28,9.03,2.32-2.32,4.36-5.19,5.53-8.66,6.99-20.55-21.98-44.94-25.59-47.92-35.97-29.61-86.93-20.15-98.79-17.94-53.88,10.03-85.27,46.77-94.41,57.81-2.55,3.1-11.61,15.19-25.22,41.36-20.72,39.75-30.95,77.73-36.06,108.68v404.72h23.42v4.81H0v-4.81h17.57V44.07H0v-4.33h132.44v140.5c11.78-29.78,29.35-61.76,55.8-91.6,6.65-7.51,11.46-12.44,14.65-15.36,10.03-9.31,40.27-36.6,85.98-43.91,11.46-1.83,49.47-7.91,87.5,10.98h.03c17.68-11.64,47.95-28.32,88.99-36.23,10.92-2.09,53.25-9.46,105.39,2.75,21.07,4.93,100.43,23.33,144.34,89.45,27.49,41.39,29.49,83.98,30.72,120,2.89,83.57,4.61,196.33.75,333.7,5.62,24.33,25.14,42.05,46.83,43.91,34.45,2.92,58.07-36.94,57.81-54.89-.03-1.75-.34-8.03,0-8.05.52,0,2.26,14.79,2.55,18.29,2.12,25.79-20.41,59.41-47.55,76.84Z"/>
  <path class="cls-1" d="M360.44,290.8h0"/>
  <path class="cls-1" d="M360.18,295.76c-.18.33-.36.66-.56.99"/>
  <path class="cls-1" d="M360.44,290.8h0"/>
  <line class="cls-1" x1="359.62" y1="150.43" x2="359.62" y2="186.93"/>
</svg>